HIERARCHY
ROOT Hips
{
	OFFSET	0.00	0.00	0.00
	CHANNELS 6 Xposition Yposition Zposition Zrotation Xrotation Yrotation
	JOINT LeftUpLeg
	{
		OFFSET	 0.126116	-0.014019	-0.065224
		CHANNELS 3 Zrotation Xrotation Yrotation
		JOINT LeftLeg
		{
			OFFSET	 0.000000	 0.000000	 0.569914
			CHANNELS 3 Zrotation Xrotation Yrotation
			JOINT LeftFoot
			{
				OFFSET	 0.000000	 0.000000	 0.544423
				CHANNELS 3 Zrotation Xrotation Yrotation
				JOINT LeftToeBase
				{
					OFFSET	 0.000000	 0.000000	 0.207117
					CHANNELS 3 Zrotation Xrotation Yrotation
					End Site
					{
						OFFSET	 0.000000	 0.000000	 0.207117
					}
				}
			}
		}
	}
	JOINT RightUpLeg
	{
		OFFSET	-0.124023	-0.008373	-0.065224
		CHANNELS 3 Zrotation Xrotation Yrotation
		JOINT RightLeg
		{
			OFFSET	 0.000000	 0.000000	 0.570047
			CHANNELS 3 Zrotation Xrotation Yrotation
			JOINT RightFoot
			{
				OFFSET	 0.000000	 0.000000	 0.544354
				CHANNELS 3 Zrotation Xrotation Yrotation
				JOINT RightToeBase
				{
					OFFSET	 0.000000	 0.000000	 0.207540
					CHANNELS 3 Zrotation Xrotation Yrotation
					End Site
					{
						OFFSET	 0.000000	 0.000000	 0.207540
					}
				}
			}
		}
	}
	JOINT Spine
	{
		OFFSET	 0.000184	-0.007763	 0.117403
		CHANNELS 3 Zrotation Xrotation Yrotation
		JOINT Spine1
		{
			OFFSET	 0.000000	 0.000000	 0.137269
			CHANNELS 3 Zrotation Xrotation Yrotation
			JOINT Spine2
			{
				OFFSET	 0.000000	 0.000000	 0.156879
				CHANNELS 3 Zrotation Xrotation Yrotation
				JOINT LeftShoulder
				{
					OFFSET	 0.080501	-0.002496	 0.160144
					CHANNELS 3 Zrotation Xrotation Yrotation
					JOINT LeftArm
					{
						OFFSET	 0.000000	 0.000000	 0.164363
						CHANNELS 3 Zrotation Xrotation Yrotation
						JOINT LeftForeArm
						{
							OFFSET	 0.000000	 0.000000	 0.364576
							CHANNELS 3 Zrotation Xrotation Yrotation
							JOINT LeftHand
							{
								OFFSET	 0.000000	 0.000000	 0.360812
								CHANNELS 3 Zrotation Xrotation Yrotation
								JOINT LeftHandIndex1
								{
									OFFSET	 0.000000	 0.000000	 0.086006
									CHANNELS 3 Zrotation Xrotation Yrotation
									JOINT LeftHandIndex2
									{
										OFFSET	 0.000000	 0.000000	 0.047236
										CHANNELS 3 Zrotation Xrotation Yrotation
										JOINT LeftHandIndex3
										{
											OFFSET	-0.004284	-0.000551	 0.038166
											CHANNELS 3 Zrotation Xrotation Yrotation
											End Site
											{
												OFFSET	-0.004284	-0.000551	 0.038166
											}
										}
									}
								}
							}
						}
					}
				}
				JOINT Neck
				{
					OFFSET	 0.000000	 0.000000	 0.176489
					CHANNELS 3 Zrotation Xrotation Yrotation
					JOINT Head
					{
						OFFSET	 0.000000	-0.001747	 0.077940
						CHANNELS 3 Zrotation Xrotation Yrotation
						End Site
						{
							OFFSET	 0.000000	-0.001747	 0.077940
						}
					}
				}
				JOINT RightShoulder
				{
					OFFSET	-0.080363	 0.000306	 0.159706
					CHANNELS 3 Zrotation Xrotation Yrotation
					JOINT RightArm
					{
						OFFSET	 0.000000	 0.000000	 0.164196
						CHANNELS 3 Zrotation Xrotation Yrotation
						JOINT RightForeArm
						{
							OFFSET	 0.000000	 0.000000	 0.365611
							CHANNELS 3 Zrotation Xrotation Yrotation
							JOINT RightHand
							{
								OFFSET	 0.000000	 0.000000	 0.360648
								CHANNELS 3 Zrotation Xrotation Yrotation
								JOINT RightHandIndex1
								{
									OFFSET	 0.000000	 0.000000	 0.069977
									CHANNELS 3 Zrotation Xrotation Yrotation
									JOINT RightHandIndex2
									{
										OFFSET	 0.000000	 0.000000	 0.052305
										CHANNELS 3 Zrotation Xrotation Yrotation
										JOINT RightHandIndex3
										{
											OFFSET	 0.009002	-0.000782	 0.042196
											CHANNELS 3 Zrotation Xrotation Yrotation
											End Site
											{
												OFFSET	 0.009002	-0.000782	 0.042196
											}
										}
									}
								}
							}
						}
					}
				}
			}
		}
	}
}
MOTION
Frames:    13
Frame Time: 0.03333334
-0.000224	 0.019811	 1.269509	 0.001496	 0.016510	 0.033421	 19.048540	-3.358198	 175.846900	 1.468301	-12.348770	-0.721634	-8.849055	 69.840140	 2.970213	-2.385833	 28.452760	 0.000004	-19.175930	-3.738285	-175.987000	-1.450595	-12.692510	 0.728738	 8.508022	 69.944980	-2.760339	 2.384658	 28.388730	 0.000004	 34.997870	 1.721946	 0.107999	-0.249317	 7.054060	-0.063139	 0.797259	-9.008007	 0.208070	-91.776120	 78.527470	 179.999900	 45.087990	 32.615400	-51.833560	-26.204040	 3.826893	-11.032780	-49.824140	-4.300017	-6.179976	-2.635965	 4.993658	 6.788941	-5.165319	 0.784187	 3.516649	-5.225038	 0.466231	 0.424329	-0.000002	-3.783157	-0.089647	 0.768971	 3.001275	-0.020159	 89.782120	 78.203890	 180.000000	-2.213407	 12.198880	 110.647000	-16.250920	 3.515492	 11.161900	 23.528510	-8.410130	-3.397430	 6.112037	 4.509576	-0.364401	 4.968462	 1.518543	-9.347576	 5.168945	 0.703820	 2.021906
-0.000280	 0.019786	 1.270457	 0.000301	 0.017152	 0.019921	 19.087770	-2.887707	 175.824600	 1.480236	-11.382220	-0.663570	-8.543830	 69.231460	 2.649573	-2.385833	 28.452760	 0.000004	-19.207080	-3.324229	-175.945700	-1.461513	-11.823460	 0.677341	 8.232793	 69.384530	-2.471529	 2.384658	 28.388730	 0.000004	 35.909920	 1.715454	 0.091897	-0.063511	 7.076857	-0.001390	 0.242975	-9.039812	 0.058025	-91.776180	 78.527430	 180.000000	 45.223420	 32.621650	-51.974680	-22.429870	 2.471917	-8.927512	-49.158440	-2.474645	-5.441134	-2.635965	 4.993658	 6.788941	-5.165319	 0.784187	 3.516649	-5.225038	 0.466231	 0.424329	-0.000002	-3.783157	-0.089647	 0.249738	 2.992374	-0.006537	 89.782120	 78.203890	 180.000000	-2.259012	 12.361190	 110.687800	-20.175970	 2.151320	 9.035600	 23.186680	-6.637335	-4.162908	 6.112037	 4.509576	-0.364401	 4.968462	 1.518543	-9.347576	 5.168945	 0.703820	 2.021906
-0.000288	 0.019715	 1.271185	-0.000459	 0.017724	 0.003669	 19.121440	-2.488758	 175.809800	 1.489517	-10.565780	-0.614830	-8.297755	 68.695400	 2.391179	-2.385833	 28.452760	 0.000004	-19.233120	-2.991194	-175.907600	-1.469737	-11.120560	 0.636005	 8.016691	 68.905140	-2.245034	 2.384658	 28.388730	 0.000004	 34.611880	 1.716630	 0.076695	 0.126307	 7.074600	 0.065197	-0.325339	-9.036914	-0.097662	-91.776230	 78.527450	-180.000000	 45.418940	 32.673970	-52.245950	-17.989330	 1.285736	-6.352939	-48.302840	-0.749457	-4.772644	-2.635965	 4.993658	 6.788941	-5.165319	 0.784187	 3.516649	-5.225038	 0.466231	 0.424329	-0.000002	-3.783157	-0.089647	-0.282308	 2.992623	 0.007360	 89.782120	 78.203900	 180.000000	-2.230848	 12.618040	 110.680600	-24.792630	 0.954695	 6.435194	 22.665550	-4.906853	-4.893740	 6.112037	 4.509576	-0.364401	 4.968462	 1.518543	-9.347576	 5.168945	 0.703820	 2.021906
-0.000289	 0.019651	 1.271972	-0.000853	 0.017994	-0.014445	 19.139350	-2.297022	 175.812000	 1.493649	-10.179530	-0.591862	-8.177980	 68.377450	 2.267746	-2.385833	 28.452760	 0.000004	-19.242340	-2.897196	-175.884900	-1.472073	-10.911140	 0.623733	 7.939259	 68.676190	-2.166816	 2.384658	 28.388730	 0.000004	 30.885700	 1.725591	 0.062680	 0.312313	 7.047547	 0.133955	-0.884135	-8.999205	-0.251818	-91.776170	 78.527430	 180.000000	 45.670380	 32.776290	-52.649110	-13.104670	 0.475493	-3.434284	-47.269380	 0.691728	-4.253432	-2.635965	 4.993658	 6.788941	-5.165319	 0.784187	 3.516649	-5.225038	 0.466231	 0.424329	-0.000002	-3.783157	-0.089647	-0.805675	 3.002026	 0.021098	 89.782070	 78.203900	-180.000000	-3.394970	 12.713150	 110.454900	-29.855010	 0.138578	 3.488233	 21.264150	-3.131786	-5.564374	 6.112037	 4.509576	-0.364401	 4.968462	 1.518543	-9.347576	 5.168945	 0.703820	 2.021906
-0.000349	 0.019676	 1.273365	-0.001116	 0.017680	-0.033509	 19.144950	-2.268093	 175.827400	 1.494157	-10.131640	-0.589018	-8.150264	 68.231750	 2.243127	-2.385833	 28.452760	 0.000004	-19.242950	-2.922535	-175.869900	-1.471650	-10.949000	 0.625952	 7.927949	 68.573850	-2.159511	 2.384658	 28.388730	 0.000004	 24.830070	 1.741947	 0.049406	 0.492858	 6.997637	 0.203311	-1.427843	-8.928876	-0.401781	-91.776130	 78.527490	 180.000000	 45.942390	 32.918460	-53.128140	-7.923960	 0.175565	-0.594650	-46.053540	 1.736974	-3.919688	-2.635965	 4.993658	 6.788941	-5.165319	 0.784187	 3.516649	-5.225038	 0.466231	 0.424329	-0.000002	-3.783157	-0.089647	-1.315667	 3.020132	 0.034671	 89.782090	 78.203830	 180.000000	-7.554446	 12.891370	 109.908500	-34.652590	-0.161842	 0.618239	 19.025210	-1.660409	-5.997305	 6.112037	 4.509576	-0.364401	 4.968462	 1.518543	-9.347576	 5.168945	 0.703820	 2.021906
-0.000405	 0.019710	 1.274744	-0.001221	 0.016919	-0.051447	 19.149720	-2.244460	 175.842100	 1.494538	-10.095150	-0.586855	-8.126978	 68.104490	 2.222783	-2.385833	 28.452760	 0.000004	-19.243450	-2.947430	-175.855900	-1.471227	-10.988020	 0.628236	 7.918813	 68.484760	-2.154047	 2.384658	 28.388730	 0.000004	 17.585620	 1.762822	 0.037864	 0.651064	 6.933690	 0.266526	-1.905501	-8.838564	-0.533033	-91.776180	 78.527470	 180.000000	 46.222310	 33.085500	-53.650650	-3.111130	-0.134741	-3.539759	-44.790280	 2.261632	-3.788707	-2.635965	 4.993658	 6.788941	-5.165319	 0.784187	 3.516649	-5.225038	 0.466231	 0.424329	-0.000002	-3.783157	-0.089647	-1.764808	 3.044026	 0.046881	 89.782180	 78.203890	 179.999900	-12.982920	 13.711320	 108.673000	-38.273810	-0.464324	 3.540620	 17.521260	-1.189509	-6.051042	 6.112037	 4.509576	-0.364401	 4.968462	 1.518543	-9.347576	 5.168945	 0.703820	 2.021906
-0.000443	 0.019717	 1.276255	-0.001150	 0.015486	-0.073281	 19.154930	-2.219280	 175.860400	 1.494901	-10.059410	-0.584732	-8.101347	 67.958470	 2.200740	-2.385833	 28.452760	 0.000004	-19.244090	-2.978550	-175.838800	-1.470659	-11.038490	 0.631195	 7.908926	 68.382320	-2.148615	 2.384658	 28.388730	 0.000004	 7.368629	 1.835670	 0.062261	 0.835408	 6.758365	 0.272265	-2.445796	-8.665931	-0.647757	-91.776120	 78.527450	 179.999900	 46.573080	 33.308360	-54.334010	 2.545725	-1.139350	-6.943518	-43.085370	 2.272825	-3.832549	-2.635965	 4.993658	 6.788941	-5.165319	 0.784187	 3.516649	-5.225038	 0.466231	 0.424329	-0.000002	-3.783157	-0.089647	-2.279908	 3.081244	 0.061313	 89.782070	 78.203900	-180.000000	-20.272170	 15.927250	 106.036600	-41.710360	-1.450028	 6.921391	 16.924780	-1.801947	-5.731655	 6.112037	 4.509576	-0.364401	 4.968462	 1.518543	-9.347576	 5.168945	 0.703820	 2.021906
-0.000478	 0.019748	 1.277348	-0.000863	 0.013538	-0.095527	 19.159690	-2.197475	 175.879400	 1.495192	-10.032120	-0.583113	-8.077881	 67.818180	 2.180990	-2.385833	 28.452760	 0.000004	-19.244760	-3.011545	-175.821400	-1.470027	-11.093790	 0.634440	 7.900247	 68.283840	-2.144470	 2.384658	 28.388730	 0.000004	-3.695809	 1.872230	 0.060779	 1.007272	 6.642563	 0.326399	-2.962973	-8.500010	-0.777519	-91.776230	 78.527430	-180.000000	 46.954250	 33.560080	-55.097300	 7.896918	-2.739346	-10.049470	-41.172240	 1.546995	-4.046542	-2.635965	 4.993658	 6.788941	-5.165319	 0.784187	 3.516649	-5.225038	 0.466231	 0.424329	-0.000002	-3.783157	-0.089647	-2.771377	 3.127867	 0.075666	 89.782060	 78.203900	-180.000000	-28.227770	 18.953890	 102.506200	-44.395570	-3.028646	 10.010690	 17.227500	-3.453515	-5.058563	 6.112037	 4.509576	-0.364401	 4.968462	 1.518543	-9.347576	 5.168945	 0.703820	 2.021906
-0.000502	 0.019769	 1.278103	-0.000443	 0.011454	-0.115322	 19.163570	-2.180786	 175.896500	 1.495375	-10.014210	-0.582052	-8.058485	 67.695910	 2.165060	-2.385833	 28.452760	 0.000004	-19.245400	-3.041937	-175.805900	-1.469446	-11.145980	 0.637500	 7.893151	 68.197060	-2.141452	 2.384658	 28.388730	 0.000004	-13.485120	 1.910572	 0.059305	 1.153560	 6.520801	 0.374758	-3.404703	-8.326455	-0.886068	-91.776190	 78.527470	 180.000000	 47.305840	 33.793620	-55.818990	 12.288650	-4.538252	-12.461770	-39.284110	 0.228857	-4.318839	-2.635965	 4.993658	 6.788941	-5.165319	 0.784187	 3.516649	-5.225038	 0.466231	 0.424329	-0.000002	-3.783157	-0.089647	-3.193221	 3.177745	 0.088583	 89.782100	 78.203870	 180.000000	-35.476880	 22.737810	 98.481040	-46.257870	-4.807702	 12.418390	 17.685380	-5.594265	-4.218580	 6.112037	 4.509576	-0.364401	 4.968462	 1.518543	-9.347576	 5.168945	 0.703820	 2.021906
-0.000509	 0.019700	 1.279240	-0.000678	 0.009811	-0.131084	 19.168110	-2.168786	 175.910000	 1.495503	-10.002180	-0.581337	-8.039505	 67.563170	 2.150196	-2.385833	 28.452760	 0.000004	-19.246010	-3.070968	-175.793900	-1.468870	-11.196260	 0.640450	 7.884766	 68.095490	-2.137790	 2.384658	 28.388730	 0.000004	-23.098770	 1.957990	 0.051366	 1.308238	 6.365430	 0.425333	-3.871075	-8.106717	-0.996351	-91.776250	 78.527470	-180.000000	 47.702500	 34.054380	-56.638670	 16.556010	-6.715885	-14.648610	-37.001400	-1.989618	-4.613984	-2.635965	 4.993658	 6.788941	-5.165319	 0.784187	 3.516649	-5.225038	 0.466231	 0.424329	-0.000002	-3.783157	-0.089647	-3.641557	 3.242790	 0.103099	 89.782120	 78.203900	 180.000000	-43.075630	 26.762620	 92.437180	-47.529130	-6.962799	 14.604320	 17.517260	-8.412317	-3.083030	 6.112037	 4.509576	-0.364401	 4.968462	 1.518543	-9.347576	 5.168945	 0.703820	 2.021906
-0.000525	 0.019624	 1.280271	-0.000794	 0.008014	-0.145492	 19.172210	-2.160378	 175.922400	 1.495547	-9.997022	-0.581032	-8.022485	 67.436220	 2.137376	-2.385833	 28.452760	 0.000004	-19.246790	-3.099135	-175.782900	-1.468304	-11.246050	 0.643373	 7.876774	 67.996030	-2.134497	 2.384658	 28.388730	 0.000004	-29.923700	 2.009858	 0.042656	 1.449427	 6.194847	 0.474227	-4.298336	-7.866974	-1.093919	-91.776190	 78.527450	-180.000000	 48.056750	 34.289440	-57.458410	 19.917730	-8.732498	-16.228120	-34.603810	-4.861955	-4.775856	-2.635965	 4.993658	 6.788941	-5.165319	 0.784187	 3.516649	-5.225038	 0.466231	 0.424329	-0.000002	-3.783157	-0.089647	-4.055179	 3.316001	 0.117414	 89.782160	 78.203900	 179.999900	-47.209780	 30.205480	 76.705920	-44.575320	-16.493580	 29.319270	 16.983460	-11.617330	-1.789192	 6.112037	 4.509576	-0.364401	 4.968462	 1.518543	-9.347576	 5.168945	 0.703820	 2.021906
-0.000544	 0.019579	 1.281022	-0.000957	 0.006485	-0.157024	 19.175970	-2.154890	 175.932400	 1.495562	-9.995558	-0.580944	-8.007496	 67.321230	 2.126384	-2.385833	 28.452760	 0.000004	-19.247730	-3.122494	-175.774200	-1.467830	-11.287360	 0.645797	 7.868589	 67.902250	-2.130653	 2.384658	 28.388730	 0.000004	-32.933420	 2.061467	 0.033190	 1.569312	 6.023561	 0.517766	-4.662053	-7.627907	-1.173471	-91.776200	 78.527470	 180.000000	 48.331420	 34.467180	-58.167630	 22.150750	-10.217470	-17.192170	-32.272920	-7.977922	-4.709503	-2.635965	 4.993658	 6.788941	-5.165319	 0.784187	 3.516649	-5.225038	 0.466231	 0.424329	-0.000002	-3.783157	-0.089647	-4.410028	 3.391413	 0.130606	 89.782100	 78.203890	 180.000000	-51.434350	 33.096780	 67.398910	-42.155620	-18.943450	 33.258520	 16.491980	-14.793860	-0.486265	 6.112037	 4.509576	-0.364401	 4.968462	 1.518543	-9.347576	 5.168945	 0.703820	 2.021906
-0.000559	 0.019585	 1.281572	-0.000993	 0.005405	-0.167516	 19.190570	-2.149368	 175.940800	 1.495630	-9.990369	-0.580635	-7.977348	 67.189510	 2.111007	-2.385833	 28.452760	 0.000004	-19.239010	-3.143421	-175.766800	-1.467402	-11.324710	 0.647993	 7.870454	 67.791190	-2.127131	 2.384658	 28.388730	 0.000004	-31.909930	 2.123312	 0.020412	 1.692684	 5.814724	 0.565604	-5.037892	-7.338563	-1.251590	-91.776250	 78.527470	-180.000000	 48.574710	 34.607500	-58.835920	 23.514790	-11.181170	-17.744750	-29.601540	-11.665740	-4.312573	-2.635965	 4.993658	 6.788941	-5.165319	 0.784187	 3.516649	-5.225038	 0.466231	 0.424329	-0.000002	-3.783157	-0.089647	-4.779891	 3.485861	 0.145518	 89.782100	 78.203900	 180.000000	-55.351730	 36.190620	 59.975940	-39.643070	-18.697130	 33.236790	 16.152630	-18.262960	 0.919015	 6.112037	 4.509576	-0.364401	 4.968462	 1.518543	-9.347576	 5.168945	 0.703820	 2.021906
